#!OML:ASF E:\motion texture\Top Level 1\Subject 1\Session 1\male.ASF
:FULLY-SPECIFIED
:DEGREES
196
root 27.5995 17.3617 5.39533 -90.847 -89.6761 99.769
lowerback -2.01893 -1.31908 -0.160747
upperback 0.251129 -1.80044 2.14589
thorax 1.46302 -0.916491 2.23145
lowerneck -15.1793 6.38754 0.905101
upperneck 35.2171 8.93635 -2.27611
head 14.9244 3.20721 0.312368
rclavicle -1.88845e-015 -9.54166e-015
rhumerus -33.8439 -14.1208 -73.8895
rradius 35.2225
rwrist 3.61317
rhand -11.9589 -29.7251
rfingers 7.12502
rthumb 14.0966 -59.2269
lclavicle -1.88845e-015 -9.54166e-015
lhumerus -85.8217 52.9247 13.0325
lradius 12.2932
lwrist -47.5521
lhand -9.04947 38.4345
lfingers 7.12502
lthumb 16.8988 67.7193
rfemur -37.3093 0.874494 14.6156
rtibia 16.6673
rfoot -2.42358 -13.8228
rtoes 1.68491
lfemur 2.26794 -4.35229 -21.7957
ltibia 16.4613
lfoot -16.1642 7.94721
ltoes -15.725
197
root 27.4513 17.3619 5.37736 -92.3471 -89.7699 101.278
lowerback -2.01843 -1.27127 0.0203019
upperback 0.232671 -1.74347 2.21675
thorax 1.43833 -0.887335 2.20489
lowerneck -15.1618 6.3643 0.885206
upperneck 35.3095 8.89752 -2.25285
head 14.9605 3.18683 0.318377
rclavicle 1.40143e-014 -3.97569e-015
rhumerus -33.6414 -14.2628 -73.8213
rradius 34.99
rwrist 3.52999
rhand -12.0463 -29.9442
rfingers 7.12502
rthumb 14.0124 -59.452
lclavicle 1.40143e-014 -3.97569e-015
lhumerus -84.9037 52.6378 14.2887
lradius 12.3901
lwrist -46.1726
lhand -8.87989 38.4757
lfingers 7.12502
lthumb 17.062 67.7464
rfemur -37.2043 0.92351 14.7653
rtibia 16.7506
rfoot -2.12759 -13.5453
rtoes 1.92862
lfemur 2.36658 -4.38843 -21.654
ltibia 17.1095
lfoot -15.9686 7.94744
ltoes -16.5894
198
root 27.3022 17.3638 5.35854 -92.0571 -89.8809 100.988
lowerback -2.02004 -1.22082 0.215275
upperback 0.214555 -1.68356 2.29211
thorax 1.41502 -0.856763 2.17515
lowerneck -15.1409 6.33689 0.863
upperneck 35.4079 8.85193 -2.22686
head 14.9982 3.16339 0.324641
rclavicle 6.55989e-015 1.35174e-014
rhumerus -33.4303 -14.4497 -73.7356
rradius 34.6889
rwrist 3.47668
rhand -12.1397 -30.1898
rfingers 7.12502
rthumb 13.9224 -59.7037
lclavicle 6.55989e-015 1.35174e-014
lhumerus -84.0077 52.4199 15.4939
lradius 12.4764
lwrist -44.9271
lhand -8.71201 38.5032
lfingers 7.12502
lthumb 17.2236 67.7599
rfemur -37.0674 0.962497 14.9466
rtibia 16.8796
rfoot -1.82616 -13.2585
rtoes 2.23562
lfemur 2.43316 -4.42045 -21.485
ltibia 17.8137
lfoot -15.7143 7.91979
ltoes -17.4158
199
root 27.1524 17.3672 5.33895 -141.818 -90.0133 150.739
lowerback -2.02087 -1.16778 0.424313
upperback 0.195139 -1.62069 2.37108
thorax 1.38981 -0.824757 2.14134
lowerneck -15.1185 6.3048 0.838187
upperneck 35.5148 8.79859 -2.1973
head 15.0392 3.13637 0.331458
rclavicle -9.93923e-016 -1.66979e-014
rhumerus -33.2129 -14.6842 -73.6319
rradius 34.3206
rwrist 3.46219
rhand -12.2331 -30.459
rfingers 7.12502
rthumb 13.8324 -59.9791
lclavicle -9.93923e-016 -1.66979e-014
lhumerus -83.1168 52.2679 16.6675
lradius 12.5522
lwrist -43.8151
lhand -8.55724 38.5158
lfingers 7.12502
lthumb 17.3726 67.7595
rfemur -36.8983 0.990612 15.1587
rtibia 17.048
rfoot -1.52106 -12.9623
rtoes 2.61067
lfemur 2.46564 -4.44651 -21.2893
ltibia 18.5749
lfoot -15.3969 7.86476
ltoes -18.1819
200
root 27.0019 17.3722 5.31859 -103.478 -90.1563 112.381
lowerback -2.02281 -1.11299 0.646923
upperback 0.175498 -1.55605 2.45354
thorax 1.36497 -0.791933 2.10352
lowerneck -15.0967 6.26812 0.80938
upperneck 35.6304 8.73741 -2.16216
head 15.084 3.10582 0.339972
rclavicle 3.37934e-015 -2.38542e-015
rhumerus -32.9866 -14.9662 -73.5127
rradius 33.8873
rwrist 3.49003
rhand -12.3294 -30.7477
rfingers 7.12502
rthumb 13.7396 -60.2741
lclavicle 3.37934e-015 -2.38542e-015
lhumerus -82.2346 52.185 17.8011
lradius 12.617
lwrist -42.845
lhand -8.41337 38.5054
lfingers 7.12502
lthumb 17.5111 67.7367
rfemur -36.6955 1.00976 15.3995
rtibia 17.2472
rfoot -1.21697 -12.6625
rtoes 3.04813
lfemur 2.46097 -4.46683 -21.0662
ltibia 19.3953
lfoot -15.015 7.78291
ltoes -18.8825
201
root 26.8509 17.3786 5.29748 -103.052 -90.3201 111.926
lowerback -2.02829 -1.05615 0.882933
upperback 0.158136 -1.48935 2.53885
thorax 1.34445 -0.758167 2.06107
lowerneck -15.0744 6.22687 0.778883
upperneck 35.7496 8.66885 -2.12456
head 15.1301 3.07212 0.348535
rclavicle 5.46658e-015 -4.69132e-014
rhumerus -32.7483 -15.2978 -73.3793
rradius 33.3917
rwrist 3.56351
rhand -12.4267 -31.0527
rfingers 7.12502
rthumb 13.6457 -60.5854
lclavicle 5.46658e-015 -4.69132e-014
lhumerus -81.3299 52.1703 18.932
lradius 12.6714
lwrist -42.003
lhand -8.2852 38.483
lfingers 7.12502
lthumb 17.6344 67.7033
rfemur -36.4582 1.02087 15.6683
rtibia 17.4711
rfoot -0.918478 -12.3594
rtoes 3.53358
lfemur 2.4194 -4.48028 -20.8164
ltibia 20.2732
lfoot -14.5727 7.67486
ltoes -19.5175
